<svg width="40.000000" height="40.000000" viewBox="0 0 40 40" fill="none" xmlns="http://www.w3.org/2000/svg" xmlns:xlink="http://www.w3.org/1999/xlink">
	<desc>
			Created with Pixso.
	</desc>
	<defs>
		<clipPath id="clip1_253">
			<rect id="Frame" rx="-0.500000" width="39.000000" height="39.000000" transform="translate(0.500000 0.500000)" fill="white" fill-opacity="0"/>
		</clipPath>
	</defs>
	<g clip-path="url(#clip1_253)">
		<path id="Vector" d="M20 21.25C20 21.58 19.86 21.89 19.63 22.13C19.39 22.36 19.08 22.5 18.75 22.5L11.25 22.5C10.91 22.5 10.6 22.36 10.36 22.13C10.13 21.89 10 21.58 10 21.25C10 20.91 10.13 20.6 10.36 20.36C10.6 20.13 10.91 20 11.25 20L18.75 20C19.08 20 19.39 20.13 19.63 20.36C19.86 20.6 20 20.91 20 21.25ZM18.75 15L11.25 15C10.91 15 10.6 15.13 10.36 15.36C10.13 15.6 10 15.91 10 16.25C10 16.58 10.13 16.89 10.36 17.13C10.6 17.36 10.91 17.5 11.25 17.5L18.75 17.5C19.08 17.5 19.39 17.36 19.63 17.13C19.86 16.89 20 16.58 20 16.25C20 15.91 19.86 15.6 19.63 15.36C19.39 15.13 19.08 15 18.75 15ZM36.25 25.22L36.25 35C36.25 35.22 36.19 35.43 36.08 35.62C35.97 35.82 35.82 35.97 35.62 36.09C35.43 36.2 35.22 36.26 35 36.26C34.78 36.26 34.56 36.2 34.37 36.09L30.62 33.94L26.87 36.09C26.68 36.2 26.46 36.26 26.24 36.26C26.02 36.26 25.81 36.2 25.62 36.09C25.42 35.97 25.27 35.82 25.16 35.62C25.05 35.43 24.99 35.22 25 35L25 31.25L6.25 31.25C5.58 31.25 4.95 30.98 4.48 30.51C4.01 30.04 3.75 29.41 3.75 28.75L3.75 8.75C3.75 8.08 4.01 7.45 4.48 6.98C4.95 6.51 5.58 6.25 6.25 6.25L33.75 6.25C34.41 6.25 35.04 6.51 35.51 6.98C35.98 7.45 36.25 8.08 36.25 8.75L36.25 13.52C37.04 14.27 37.66 15.18 38.09 16.19C38.52 17.19 38.74 18.28 38.74 19.37C38.74 20.46 38.52 21.55 38.09 22.55C37.66 23.56 37.04 24.47 36.25 25.22ZM25 28.75L25 25.22C23.63 23.91 22.77 22.16 22.56 20.28C22.35 18.4 22.8 16.51 23.84 14.92C24.88 13.34 26.43 12.17 28.24 11.61C30.05 11.05 32 11.15 33.75 11.87L33.75 8.75L6.25 8.75L6.25 28.75L25 28.75ZM33.75 26.87C32.76 27.28 31.69 27.5 30.62 27.5C29.55 27.5 28.48 27.28 27.5 26.87L27.5 32.84L30 31.41C30.18 31.3 30.4 31.25 30.62 31.25C30.83 31.25 31.05 31.3 31.24 31.41L33.74 32.84L33.75 26.87ZM36.25 19.37C36.25 18.26 35.92 17.17 35.3 16.24C34.68 15.32 33.8 14.6 32.77 14.17C31.74 13.75 30.61 13.64 29.52 13.85C28.43 14.07 27.43 14.61 26.64 15.39C25.86 16.18 25.32 17.18 25.1 18.27C24.89 19.36 25 20.49 25.42 21.52C25.85 22.55 26.57 23.43 27.49 24.05C28.42 24.67 29.51 25 30.62 25C31.36 25 32.09 24.85 32.77 24.57C33.46 24.28 34.08 23.87 34.6 23.35C35.12 22.83 35.53 22.21 35.82 21.52C36.1 20.84 36.25 20.11 36.25 19.37Z" fill="#888888" fill-opacity="1.000000" fill-rule="nonzero"/>
	</g>
</svg>
