<svg width="40.000000" height="37.614197" viewBox="0 0 40 37.6142" fill="none" xmlns="http://www.w3.org/2000/svg" xmlns:xlink="http://www.w3.org/1999/xlink">
	<desc>
			Created with Pixso.
	</desc>
	<defs>
		<clipPath id="clip1_267">
			<rect id="Frame" rx="-0.500000" width="39.000000" height="36.614197" transform="translate(0.500000 0.500000)" fill="white" fill-opacity="0"/>
		</clipPath>
	</defs>
	<g clip-path="url(#clip1_267)">
		<path id="Vector" d="M34.14 5.85C30.21 1.89 23.73 2.09 19.99 6.2C16.25 2.09 9.77 1.89 5.84 5.85C1.94 9.74 2.07 16.15 6.1 19.91C4.04 21.87 5.22 25.41 8.02 25.76C7.85 27.68 9.48 29.44 11.42 29.4C11.53 31.52 13.65 33.03 15.69 32.47C16.35 34.99 19.56 35.85 21.4 34C22.44 32.96 23.27 32.3 23.33 30.73C25.05 30.68 26.55 29.17 26.57 27.44C28.31 27.41 29.83 25.89 29.86 24.15C31.67 24.12 33.23 22.49 33.15 20.65L34.14 19.65C37.95 15.85 37.95 9.65 34.14 5.85ZM7.59 21.5L8.52 20.56C8.64 20.45 8.77 20.36 8.92 20.3C9.07 20.23 9.23 20.2 9.4 20.2C10.48 20.19 11.05 21.54 10.27 22.31L9.34 23.24C8.13 24.35 6.48 22.7 7.59 21.5ZM10.19 25.99C10.19 25.66 10.32 25.35 10.55 25.11L11.48 24.18C11.6 24.07 11.73 23.98 11.88 23.91C12.03 23.85 12.19 23.82 12.35 23.82C13.45 23.82 14 25.16 13.23 25.93L12.41 26.75C12.15 27.04 11.81 27.23 11.42 27.22C10.76 27.24 10.17 26.65 10.19 25.99ZM13.95 30.04C13.47 29.58 13.47 28.76 13.95 28.3L14.77 27.47C15.25 26.9 16.09 26.83 16.62 27.36C17.11 27.84 17.11 28.63 16.62 29.11L15.69 30.04C15.21 30.52 14.43 30.52 13.95 30.04ZM20.79 31.52L19.86 32.46C19.74 32.57 19.61 32.66 19.46 32.72C19.31 32.79 19.15 32.82 18.98 32.82C18.82 32.82 18.66 32.79 18.51 32.72C18.36 32.66 18.23 32.57 18.11 32.46C17.63 32 17.63 31.17 18.11 30.71L19.04 29.78C19.52 29.29 20.31 29.29 20.79 29.78C21.27 30.24 21.27 31.06 20.79 31.52ZM30.61 21.61C30.15 22.09 29.32 22.09 28.86 21.61L24.01 16.76L22.47 18.3L27.32 23.15C27.8 23.64 27.8 24.42 27.32 24.9C26.84 25.38 26.06 25.38 25.58 24.9L20.81 20.13L20.73 20.05L19.18 21.59L19.27 21.67L24.04 26.44C24.52 26.93 24.52 27.71 24.04 28.19C23.55 28.67 22.77 28.67 22.29 28.19L22.29 28.19C21.4 27.34 20.16 27.05 19.05 27.35C18.69 25.89 17.23 24.79 15.76 24.82C15.69 23.25 14.36 21.84 12.8 21.67C13.01 18.98 10.06 17.13 7.73 18.45C4.49 15.56 4.29 10.47 7.39 7.39C10.47 4.28 15.56 4.49 18.45 7.74L15.76 10.44L17.92 12.6C19.58 14.26 22.13 14.49 24.04 13.28L30.61 19.86C31.09 20.35 31.09 21.13 30.61 21.61ZM32.6 18.11L32.27 18.44C32.23 18.4 32.19 18.36 32.15 18.32L24.12 10.29L23.35 11.06C22.28 12.13 20.53 12.13 19.46 11.06L18.84 10.44L21.89 7.39C29.29 0.57 39.41 10.71 32.6 18.11Z" fill="#888888" fill-opacity="1.000000" fill-rule="nonzero"/>
	</g>
</svg>
