<svg width="40.000000" height="40.000000" viewBox="0 0 40 40" fill="none" xmlns="http://www.w3.org/2000/svg" xmlns:xlink="http://www.w3.org/1999/xlink">
	<desc>
			Created with Pixso.
	</desc>
	<defs>
		<clipPath id="clip1_263">
			<rect id="Frame" rx="-0.500000" width="39.000000" height="39.000000" transform="translate(0.500000 0.500000)" fill="white" fill-opacity="0"/>
		</clipPath>
	</defs>
	<g clip-path="url(#clip1_263)">
		<path id="Vector" d="M36.56 12.51C36.21 12.11 35.77 11.8 35.29 11.58C34.8 11.36 34.28 11.24 33.75 11.25L25 11.25L25 8.75C25 7.09 24.34 5.5 23.16 4.33C21.99 3.15 20.4 2.5 18.75 2.5C18.51 2.49 18.29 2.56 18.09 2.68C17.89 2.8 17.73 2.98 17.63 3.19L11.72 15L5 15C4.33 15 3.7 15.26 3.23 15.73C2.76 16.2 2.5 16.83 2.5 17.5L2.5 31.25C2.5 31.91 2.76 32.54 3.23 33.01C3.7 33.48 4.33 33.75 5 33.75L31.87 33.75C32.78 33.75 33.67 33.41 34.35 32.81C35.04 32.2 35.48 31.37 35.59 30.46L37.47 15.46C37.53 14.94 37.49 14.4 37.33 13.89C37.17 13.38 36.91 12.91 36.56 12.51ZM5 17.5L11.25 17.5L11.25 31.25L5 31.25L5 17.5ZM34.99 15.15L33.11 30.15C33.07 30.45 32.93 30.73 32.7 30.93C32.47 31.13 32.17 31.25 31.87 31.25L13.75 31.25L13.75 16.54L19.48 5.07C20.33 5.24 21.1 5.7 21.65 6.37C22.2 7.04 22.5 7.88 22.5 8.75L22.5 12.5C22.5 12.83 22.63 13.14 22.86 13.38C23.1 13.61 23.41 13.75 23.75 13.75L33.75 13.75C33.92 13.74 34.1 13.78 34.26 13.86C34.42 13.93 34.57 14.04 34.68 14.17C34.8 14.3 34.89 14.46 34.94 14.63C34.99 14.8 35.01 14.98 34.99 15.15Z" fill="#888888" fill-opacity="1.000000" fill-rule="nonzero"/>
	</g>
</svg>
