<svg width="40.000000" height="40.000000" viewBox="0 0 40 40" fill="none" xmlns="http://www.w3.org/2000/svg" xmlns:xlink="http://www.w3.org/1999/xlink">
	<desc>
			Created with Pixso.
	</desc>
	<defs>
		<clipPath id="clip1_271">
			<rect id="Frame" rx="-0.500000" width="39.000000" height="39.000000" transform="translate(0.500000 0.500000)" fill="white" fill-opacity="0"/>
		</clipPath>
	</defs>
	<g clip-path="url(#clip1_271)">
		<path id="Vector" d="M38.25 23.5C38.11 23.59 37.96 23.67 37.81 23.71C37.65 23.75 37.48 23.76 37.32 23.73C37.16 23.71 37 23.65 36.86 23.57C36.72 23.49 36.59 23.38 36.5 23.25C35.74 22.23 34.76 21.41 33.63 20.85C32.5 20.28 31.26 19.99 30 20C29.75 20 29.51 19.92 29.3 19.79C29.1 19.65 28.94 19.46 28.84 19.23C28.78 19.08 28.75 18.91 28.75 18.75C28.75 18.58 28.78 18.41 28.84 18.26C28.94 18.03 29.1 17.84 29.3 17.7C29.51 17.57 29.75 17.5 30 17.5C30.7 17.5 31.38 17.3 31.98 16.93C32.57 16.56 33.05 16.03 33.36 15.4C33.67 14.77 33.8 14.06 33.73 13.36C33.65 12.67 33.39 12 32.96 11.45C32.53 10.89 31.95 10.47 31.3 10.23C30.64 9.98 29.93 9.93 29.24 10.07C28.55 10.21 27.92 10.55 27.41 11.03C26.9 11.51 26.54 12.13 26.36 12.81C26.32 12.97 26.25 13.12 26.15 13.25C26.05 13.38 25.93 13.49 25.79 13.57C25.65 13.66 25.49 13.71 25.33 13.73C25.17 13.76 25 13.75 24.84 13.71C24.68 13.67 24.53 13.59 24.4 13.49C24.27 13.4 24.16 13.27 24.08 13.13C23.99 12.99 23.94 12.83 23.91 12.67C23.89 12.51 23.9 12.34 23.94 12.18C24.19 11.24 24.65 10.37 25.29 9.64C25.92 8.9 26.73 8.33 27.63 7.96C28.53 7.59 29.5 7.44 30.47 7.51C31.44 7.59 32.38 7.89 33.21 8.39C34.05 8.89 34.75 9.58 35.27 10.4C35.79 11.22 36.12 12.15 36.21 13.12C36.31 14.09 36.18 15.07 35.83 15.98C35.49 16.88 34.93 17.7 34.21 18.36C35.91 19.09 37.39 20.26 38.5 21.74C38.6 21.88 38.67 22.03 38.71 22.18C38.75 22.34 38.76 22.51 38.74 22.67C38.71 22.83 38.66 22.99 38.57 23.13C38.49 23.27 38.38 23.4 38.25 23.5ZM29.83 33.12C29.92 33.26 29.98 33.42 30.01 33.59C30.03 33.75 30.03 33.92 29.99 34.09C29.95 34.25 29.87 34.41 29.77 34.54C29.67 34.68 29.54 34.79 29.4 34.87C29.25 34.96 29.09 35.01 28.92 35.03C28.76 35.05 28.59 35.04 28.42 34.99C28.26 34.94 28.11 34.87 27.98 34.76C27.85 34.65 27.74 34.52 27.66 34.37C26.88 33.04 25.76 31.93 24.41 31.16C23.07 30.4 21.54 29.99 20 29.99C18.45 29.99 16.93 30.4 15.58 31.16C14.24 31.93 13.11 33.04 12.33 34.37C12.25 34.52 12.14 34.65 12.01 34.76C11.88 34.87 11.73 34.94 11.57 34.99C11.41 35.04 11.24 35.05 11.07 35.03C10.9 35.01 10.74 34.96 10.59 34.87C10.45 34.79 10.32 34.68 10.22 34.54C10.12 34.41 10.05 34.25 10.01 34.09C9.96 33.92 9.96 33.75 9.99 33.59C10.01 33.42 10.07 33.26 10.16 33.12C11.38 31.04 13.22 29.4 15.44 28.45C14.19 27.49 13.28 26.17 12.82 24.67C12.36 23.17 12.39 21.57 12.89 20.08C13.4 18.6 14.35 17.31 15.63 16.39C16.9 15.48 18.43 14.99 20 14.99C21.56 14.99 23.09 15.48 24.37 16.39C25.64 17.31 26.6 18.6 27.1 20.08C27.6 21.57 27.63 23.17 27.17 24.67C26.71 26.17 25.8 27.49 24.55 28.45C26.77 29.4 28.61 31.04 29.83 33.12ZM20 27.5C20.98 27.5 21.95 27.2 22.77 26.65C23.6 26.1 24.24 25.32 24.61 24.41C24.99 23.49 25.09 22.49 24.9 21.52C24.71 20.55 24.23 19.66 23.53 18.96C22.83 18.26 21.94 17.78 20.97 17.59C20 17.4 19 17.5 18.08 17.88C17.17 18.25 16.39 18.9 15.84 19.72C15.29 20.54 15 21.51 15 22.5C15 23.82 15.52 25.09 16.46 26.03C17.4 26.97 18.67 27.5 20 27.5ZM11.25 18.75C11.25 18.41 11.11 18.1 10.88 17.86C10.65 17.63 10.33 17.5 10 17.5C9.29 17.5 8.61 17.3 8.01 16.93C7.42 16.56 6.94 16.03 6.63 15.4C6.32 14.77 6.19 14.06 6.27 13.36C6.34 12.67 6.6 12 7.03 11.45C7.46 10.89 8.04 10.47 8.7 10.23C9.35 9.98 10.07 9.93 10.75 10.07C11.44 10.21 12.07 10.55 12.58 11.03C13.09 11.51 13.45 12.13 13.63 12.81C13.71 13.13 13.92 13.4 14.2 13.57C14.49 13.74 14.83 13.79 15.15 13.71C15.47 13.62 15.75 13.42 15.91 13.13C16.08 12.84 16.13 12.5 16.05 12.18C15.81 11.24 15.35 10.37 14.71 9.64C14.07 8.9 13.26 8.33 12.36 7.96C11.46 7.59 10.49 7.44 9.52 7.51C8.55 7.59 7.61 7.89 6.78 8.39C5.94 8.89 5.24 9.58 4.72 10.4C4.2 11.22 3.88 12.15 3.78 13.12C3.68 14.09 3.81 15.07 4.16 15.98C4.51 16.88 5.06 17.7 5.78 18.36C4.08 19.09 2.6 20.26 1.5 21.74C1.3 22.01 1.21 22.34 1.26 22.67C1.3 23 1.48 23.3 1.74 23.49C2.01 23.69 2.34 23.78 2.67 23.73C3 23.69 3.3 23.51 3.5 23.25C4.25 22.23 5.23 21.41 6.36 20.85C7.49 20.28 8.73 19.99 10 20C10.33 20 10.65 19.86 10.88 19.63C11.11 19.39 11.25 19.08 11.25 18.75Z" fill="#888888" fill-opacity="1.000000" fill-rule="nonzero"/>
	</g>
</svg>
