<svg width="24.000000" height="24.000000" viewBox="0 0 24 24" fill="none" xmlns="http://www.w3.org/2000/svg" xmlns:xlink="http://www.w3.org/1999/xlink">
	<desc>
			Created with Pixso.
	</desc>
	<defs/>
	<path id="Subtract" d="M12 24C18.6274 24 24 18.6274 24 12C24 5.37256 18.6274 0 12 0C5.37256 0 0 5.37256 0 12C0 18.6274 5.37256 24 12 24ZM12.4301 8.85913C11.2628 9.34448 8.93011 10.3494 5.43188 11.8735C4.86383 12.0994 4.56628 12.3203 4.53918 12.5364C4.49341 12.9016 4.95068 13.0454 5.57349 13.2412C5.6582 13.2678 5.74597 13.2954 5.83594 13.3247C6.44861 13.5239 7.27283 13.7568 7.70129 13.7661C8.08997 13.7747 8.52374 13.6143 9.00262 13.2854Q13.9054 9.97607 14.0643 9.93994C14.139 9.92285 14.2426 9.90161 14.3127 9.96387C14.3829 10.0264 14.376 10.1445 14.3686 10.176C14.3091 10.4294 11.2388 13.2222 11.0621 13.4058C10.968 13.5034 10.8721 13.5959 10.78 13.6848C10.2108 14.2334 9.78394 14.645 10.8036 15.3169C11.8288 15.9924 12.4255 16.4236 13.4816 17.1157C13.6221 17.2078 13.7562 17.3035 13.8869 17.3967C14.3841 17.7512 14.8307 18.0696 15.3826 18.0188C15.7032 17.9893 16.0345 17.6877 16.2027 16.7886C16.6002 14.6633 17.3817 10.0586 17.5622 8.16113C17.5781 7.99487 17.5581 7.78198 17.5422 7.68872C17.5262 7.59521 17.4927 7.46216 17.3713 7.36377C17.2276 7.24707 17.0056 7.22241 16.9064 7.22412C16.455 7.23218 15.7626 7.4729 12.4301 8.85913Z" clip-rule="evenodd" fill="#888888" fill-opacity="1.000000" fill-rule="evenodd"/>
</svg>
