<svg width="40.000000" height="40.000000" viewBox="0 0 40 40" fill="none" xmlns="http://www.w3.org/2000/svg" xmlns:xlink="http://www.w3.org/1999/xlink">
	<desc>
			Created with Pixso.
	</desc>
	<defs>
		<clipPath id="clip1_249">
			<rect id="Frame" rx="-0.500000" width="39.000000" height="39.000000" transform="translate(0.500000 0.500000)" fill="white" fill-opacity="0"/>
		</clipPath>
	</defs>
	<g clip-path="url(#clip1_249)">
		<path id="Vector" d="M21.25 11.25L21.25 17.97L26.94 15.13C27.23 14.98 27.58 14.95 27.89 15.06C28.2 15.16 28.46 15.39 28.61 15.68C28.76 15.98 28.79 16.32 28.68 16.64C28.58 16.95 28.35 17.21 28.05 17.36L20.55 21.11C20.36 21.21 20.15 21.25 19.94 21.24C19.73 21.23 19.52 21.17 19.34 21.06C19.16 20.95 19.01 20.79 18.9 20.6C18.8 20.42 18.75 20.21 18.75 20L18.75 11.25C18.75 10.91 18.88 10.6 19.11 10.36C19.35 10.13 19.66 10 20 10C20.33 10 20.64 10.13 20.88 10.36C21.11 10.6 21.25 10.91 21.25 11.25ZM20 33.75C17.28 33.75 14.62 32.94 12.36 31.43C10.09 29.92 8.33 27.77 7.29 25.26C6.25 22.74 5.98 19.98 6.51 17.31C7.04 14.65 8.35 12.2 10.27 10.27C12.2 8.35 14.65 7.04 17.31 6.51C19.98 5.98 22.74 6.25 25.26 7.29C27.77 8.33 29.92 10.09 31.43 12.36C32.94 14.62 33.75 17.28 33.75 20C33.75 20.33 33.88 20.64 34.11 20.88C34.35 21.11 34.66 21.25 35 21.25C35.33 21.25 35.64 21.11 35.88 20.88C36.11 20.64 36.25 20.33 36.25 20C36.25 16.78 35.29 13.64 33.51 10.97C31.72 8.29 29.18 6.21 26.21 4.98C23.24 3.75 19.98 3.43 16.82 4.06C13.67 4.68 10.78 6.23 8.5 8.5C6.23 10.78 4.68 13.67 4.06 16.82C3.43 19.98 3.75 23.24 4.98 26.21C6.21 29.18 8.29 31.72 10.97 33.51C13.64 35.29 16.78 36.25 20 36.25C20.33 36.25 20.64 36.11 20.88 35.88C21.11 35.64 21.25 35.33 21.25 35C21.25 34.66 21.11 34.35 20.88 34.11C20.64 33.88 20.33 33.75 20 33.75ZM36.2 34.67C36.25 34.83 36.26 35 36.24 35.17C36.22 35.33 36.17 35.49 36.09 35.63C36.01 35.78 35.9 35.91 35.77 36.01C35.63 36.11 35.48 36.18 35.32 36.23C35.16 36.27 34.99 36.28 34.83 36.26C34.66 36.23 34.51 36.18 34.36 36.09C34.22 36.01 34.1 35.9 34 35.76C33.9 35.63 33.83 35.48 33.79 35.32C33.34 33.65 31.79 32.5 30 32.5C28.2 32.5 26.65 33.65 26.2 35.32C26.13 35.58 25.98 35.82 25.76 35.99C25.54 36.15 25.27 36.24 25 36.25C24.89 36.24 24.78 36.23 24.67 36.2C24.35 36.12 24.08 35.91 23.91 35.62C23.75 35.33 23.7 34.99 23.79 34.67C24.19 33.17 25.15 31.87 26.46 31.03C25.76 30.33 25.28 29.44 25.09 28.47C24.9 27.5 25 26.49 25.37 25.58C25.75 24.67 26.39 23.88 27.22 23.34C28.04 22.79 29.01 22.49 29.99 22.49C30.98 22.49 31.95 22.79 32.77 23.34C33.59 23.88 34.24 24.67 34.61 25.58C34.99 26.49 35.09 27.5 34.9 28.47C34.7 29.44 34.23 30.33 33.53 31.03C34.84 31.87 35.8 33.17 36.2 34.67ZM27.5 27.5C27.5 27.99 27.64 28.47 27.92 28.88C28.19 29.3 28.58 29.62 29.04 29.8C29.5 29.99 30 30.04 30.48 29.95C30.97 29.85 31.41 29.61 31.76 29.26C32.11 28.91 32.35 28.47 32.45 27.98C32.54 27.5 32.49 27 32.3 26.54C32.12 26.08 31.8 25.69 31.38 25.42C30.97 25.14 30.49 25 30 25C29.33 25 28.7 25.26 28.23 25.73C27.76 26.2 27.5 26.83 27.5 27.5Z" fill="#888888" fill-opacity="1.000000" fill-rule="nonzero"/>
	</g>
</svg>
