<svg width="40.000000" height="40.000000" viewBox="0 0 40 40" fill="none" xmlns="http://www.w3.org/2000/svg" xmlns:xlink="http://www.w3.org/1999/xlink">
	<desc>
			Created with Pixso.
	</desc>
	<defs>
		<clipPath id="clip1_245">
			<rect id="Frame" rx="-0.500000" width="39.000000" height="39.000000" transform="translate(0.500000 0.500000)" fill="white" fill-opacity="0"/>
		</clipPath>
	</defs>
	<g clip-path="url(#clip1_245)">
		<path id="Vector" d="M20 3.75C16.78 3.75 13.64 4.7 10.97 6.48C8.29 8.27 6.21 10.81 4.98 13.78C3.75 16.75 3.43 20.01 4.06 23.17C4.68 26.32 6.23 29.21 8.5 31.49C10.78 33.76 13.67 35.31 16.82 35.93C19.98 36.56 23.24 36.24 26.21 35.01C29.18 33.78 31.72 31.7 33.51 29.02C35.29 26.35 36.25 23.21 36.25 20C36.24 15.69 34.53 11.56 31.48 8.51C28.43 5.46 24.3 3.75 20 3.75ZM20 33.75C17.28 33.75 14.62 32.94 12.36 31.43C10.09 29.92 8.33 27.77 7.29 25.26C6.25 22.74 5.98 19.98 6.51 17.31C7.04 14.65 8.35 12.2 10.27 10.27C12.2 8.35 14.65 7.04 17.31 6.51C19.98 5.98 22.74 6.25 25.26 7.29C27.77 8.33 29.92 10.09 31.43 12.36C32.94 14.62 33.75 17.28 33.75 20C33.74 23.64 32.29 27.14 29.71 29.71C27.14 32.29 23.64 33.74 20 33.75ZM30 20C30 20.33 29.86 20.64 29.63 20.88C29.39 21.11 29.08 21.25 28.75 21.25L20 21.25C19.66 21.25 19.35 21.11 19.11 20.88C18.88 20.64 18.75 20.33 18.75 20L18.75 11.25C18.75 10.91 18.88 10.6 19.11 10.36C19.35 10.13 19.66 10 20 10C20.33 10 20.64 10.13 20.88 10.36C21.11 10.6 21.25 10.91 21.25 11.25L21.25 18.75L28.75 18.75C29.08 18.75 29.39 18.88 29.63 19.11C29.86 19.35 30 19.66 30 20Z" fill="#888888" fill-opacity="1.000000" fill-rule="nonzero"/>
	</g>
</svg>
