<svg width="24.000000" height="24.000000" viewBox="0 0 24 24" fill="none" xmlns="http://www.w3.org/2000/svg" xmlns:xlink="http://www.w3.org/1999/xlink">
	<desc>
			Created with Pixso.
	</desc>
	<defs>
		<clipPath id="clip1_109">
			<rect id="Frame 14" rx="-0.500000" width="23.000000" height="23.000000" transform="translate(0.500000 0.500000)" fill="white" fill-opacity="0"/>
		</clipPath>
	</defs>
	<g clip-path="url(#clip1_109)">
		<path id="Subtract" d="M0.238098 23.9382C0.103455 23.8635 0.0022583 23.6936 0 23.5381C-0.000915527 23.4756 0.425354 22.3169 0.947327 20.9631L1.89624 18.5017L1.74286 18.2373C1.46069 17.751 0.898254 16.5701 0.722839 16.0957C0.499512 15.4915 0.219116 14.3726 0.111389 13.6553C0.00683594 12.959 -0.00939941 11.1555 0.0830688 10.5107C0.481567 7.73218 1.63135 5.3855 3.51971 3.49683C5.40619 1.60986 7.78259 0.44165 10.5087 0.0612793C11.0947 -0.0205078 12.9258 -0.0205078 13.5117 0.0612793C17.0223 0.55127 20.0076 2.38794 21.9526 5.25439C22.9832 6.77319 23.6111 8.40454 23.913 10.3464C24.0181 11.0234 24.031 12.8696 23.9351 13.5144C23.527 16.2561 22.3415 18.655 20.4808 20.5051C17.5792 23.3896 13.4504 24.5886 9.40607 23.7209C8.38141 23.501 6.84406 22.8909 5.88696 22.324L5.6524 22.1851L3.11859 23.0923C1.72504 23.5913 0.532043 23.9998 0.467529 24C0.403015 24.0002 0.299805 23.9724 0.238098 23.9382ZM17.1943 17.1743C16.8536 17.5112 16.5048 17.7261 16.0377 17.8872C15.6009 18.0378 14.8201 18.0779 14.3563 17.9734C13.2753 17.73 11.6201 16.8716 10.2037 15.8201C8.86542 14.8264 7.7132 13.3823 6.75391 11.4966C6.00952 10.0332 5.81201 9.09961 6.04987 8.16943C6.3114 7.14673 7.11786 6.30249 8.11255 6.01001C8.29315 5.95679 8.56122 5.93506 9.0329 5.93506C9.6394 5.93506 9.70959 5.94385 9.82452 6.03418C9.90436 6.09717 10.1608 6.5498 10.5223 7.26636L11.094 8.39893L11.0924 8.79785C11.0909 9.15454 11.0732 9.23413 10.9255 9.54883C10.8346 9.74268 10.6205 10.074 10.4498 10.2854L10.1395 10.6699L10.3597 11.1091C10.9321 12.2507 11.7766 13.085 12.9452 13.6636L13.3408 13.8594L13.6097 13.6165C14.1773 13.1042 14.7424 12.8579 15.2712 12.8923C15.5792 12.9126 15.6699 12.9492 16.7258 13.4788C17.3452 13.7893 17.8942 14.0903 17.9458 14.1475C18.0286 14.2393 18.0414 14.3301 18.0547 14.9209C18.0687 15.542 18.0609 15.6165 17.9457 15.9597C17.7834 16.4434 17.5466 16.8262 17.1943 17.1743Z" clip-rule="evenodd" fill="#B8B8B8" fill-opacity="1.000000" fill-rule="evenodd"/>
	</g>
</svg>
