<svg width="31.427124" height="22.000000" viewBox="0 0 31.4271 22" fill="none" xmlns="http://www.w3.org/2000/svg" xmlns:xlink="http://www.w3.org/1999/xlink">
	<desc>
			Created with Pixso.
	</desc>
	<defs/>
	<path id="Subtract" d="M30.77 3.43555C30.4078 2.08252 29.3445 1.01929 27.9915 0.656982C25.5417 0 15.7135 0 15.7135 0C15.7135 0 5.88544 0 3.43555 0.656982C2.08258 1.01929 1.01929 2.08252 0.657104 3.43555C0 5.8855 0 11 0 11C0 11 0 16.1145 0.657104 18.5645C1.01929 19.9175 2.08258 20.9807 3.43555 21.3428C5.88544 22 15.7135 22 15.7135 22C15.7135 22 25.5417 22 27.9915 21.3428C29.3445 20.9807 30.4078 19.9175 30.77 18.5645C31.4271 16.1145 31.4271 11 31.4271 11C31.4271 11 31.4244 5.8855 30.77 3.43555ZM20.7324 11.0007L12.5677 15.7141L12.5677 6.28711L20.7324 11.0007Z" clip-rule="evenodd" fill="#9C9C9C" fill-opacity="1.000000" fill-rule="evenodd"/>
</svg>
